<svg xmlns="http://www.w3.org/2000/svg" viewBox="0 0 512 512"><title>Airplane01</title><g id="Airplane01"><g id="Airplane01-2" data-name="Airplane01"><path d="M170.2539,347.5288l30.4143,59.95a5.7509,5.7509,0,0,0,8.1329.0067l16.94-16.9414-14.344-55.4277a54.6636,54.6636,0,0,0,14.4238-10.4006l55.8135-51.4577,72.332,131.4144a7.6206,7.6206,0,0,0,10.78.0029l27.1652-27.1681L343.4171,215.4693l53.8346-50.3567c14.8133-14.82,15.4679-38.1881,1.4668-52.1892-14.0087-14.0049-37.373-13.35-52.193,1.4659L295.7993,168.62l-160.95-48.1792L107.6812,147.61a7.6206,7.6206,0,0,0,0,10.78l130.5,71.8228L186.9255,285.82a54.437,54.437,0,0,0-10.6362,14.896l-54.47-14.098-16.9413,16.9442a5.751,5.751,0,0,0,0,8.13l59.9469,30.4105Z"/></g></g></svg>