
        <svg xmlns="http://www.w3.org/2000/svg" xmlns:xlink="http://www.w3.org/1999/xlink" version="1.1" width="3162.1986933994144" 
        height="624.52650223508" viewBox="0 0 3162.1986933994144 624.52650223508">
			
			<g transform="scale(8.109934669970714) translate(10, 10)">
				<defs id="SvgjsDefs12467"></defs><g id="SvgjsG12468" featureKey="pxMwYC-0" transform="matrix(0.9469696879386902,0,0,0.9469696879386902,526.6401515151515,-347.9166608868223)" fill="#007ec7"><path xmlns="http://www.w3.org/2000/svg" fill-rule="evenodd" clip-rule="evenodd" d="M-232.5,402.5l67-5l-67,30.1V402.5z M-232.5,392.5v-25.1l67,30.1L-232.5,392.5z   M-235.8,387.5v20.1l-6.7-10L-235.8,387.5z"></path></g><g id="SvgjsG12469" featureKey="Vx5QiU-0" transform="matrix(3.487957239151001,0,0,3.487957239151001,-1.8137377092184992,-17.99749931861829)" fill="#007ec7"><path d="M12.54 20.68 l-1.16 -1.28 c-1.06 0.56 -2.28 0.88 -3.6 0.88 c-4 0 -7.26 -3.06 -7.26 -7.12 c0 -4.08 3.26 -7.14 7.26 -7.14 c4.1 0 7.26 3.06 7.26 7.12 c0 1.76 -0.58 3.34 -1.58 4.56 l1.88 2.06 z M7.78 17.4 c0.54 0 1.04 -0.1 1.52 -0.28 l-1.98 -2.16 l2.8 -0.92 l1.2 1.32 c0.36 -0.64 0.56 -1.4 0.56 -2.22 c0 -2.38 -1.78 -4.24 -4.1 -4.24 s-4.1 1.86 -4.1 4.26 s1.78 4.24 4.1 4.24 z M25.8 20 l-2.74 0 l0 -1.02 c-0.7 0.74 -1.74 1.2 -2.98 1.2 c-2.4 0 -3.96 -1.66 -3.96 -4.14 l0 -6.3 l2.76 0 l0 5.82 c0 1.22 0.7 2.06 1.9 2.06 c1.34 0 2.26 -0.86 2.26 -2.28 l0 -5.6 l2.76 0 l0 10.26 z M29.7 8.86 l-2.78 0 l0 -2.56 l2.78 0 l0 2.56 z M29.7 20 l-2.78 0 l0 -10.26 l2.78 0 l0 10.26 z M39.3 11.94 l-4.76 5.64 l4.78 0 l0 2.42 l-8.58 0 l0 -2.16 l4.76 -5.64 l-4.8 0 l0 -2.46 l8.6 0 l0 2.2 z M40.3 15.1 l3.1 0 c0 1.58 0.76 2.26 2.02 2.26 c1.28 0 2.02 -0.94 2.02 -2.38 l0 -8.68 l3.1 0 l0 8.68 c0 3.14 -1.8 5.26 -5.1 5.26 c-3.18 0 -5.16 -1.86 -5.14 -5.14 z M61.94 17.8 c-1 1.5 -2.58 2.44 -4.86 2.44 c-3.28 0 -5.4 -2.3 -5.4 -5.34 c0 -2.96 2.2 -5.36 5.42 -5.36 c3.24 0 5.2 2.24 5.2 5.22 c0 0.4 -0.04 0.92 -0.04 0.98 l-7.84 0 c0.3 1.3 1.28 2.14 2.72 2.14 c1.24 0 2.14 -0.54 2.72 -1.36 z M57.08 11.82 c-1.3 0 -2.2 0.7 -2.56 1.86 l4.98 0 c-0.3 -1.24 -1.3 -1.86 -2.42 -1.86 z M67.36 9.74 l2.52 0 l0 2.48 l-2.52 0 l0 4.12 c0 0.92 0.42 1.28 1.36 1.28 l1.16 0 l0 2.38 l-1.36 0 c-2.72 0 -3.94 -1.22 -3.94 -3.52 l0 -4.26 l-1.48 0 l0 -2.48 l1.48 0 l0 -2.64 l2.78 0 l0 2.64 z M70.76 16.78 l2.82 0 c0 0.62 0.42 1.38 1.9 1.4 c1.04 0 1.52 -0.48 1.52 -0.96 c0 -1.8 -6.06 0.04 -6.06 -4.28 c0 -1.86 1.64 -3.32 4.24 -3.32 s4.24 1.34 4.4 3.4 l-2.78 0 c-0.04 -0.74 -0.34 -1.3 -1.58 -1.3 c-0.8 0 -1.46 0.26 -1.46 0.9 c0 1.84 6.2 0.22 6.2 4.12 c0 2.44 -2.04 3.46 -4.62 3.46 c-2.8 0 -4.52 -1.46 -4.58 -3.42 z"></path></g>
			</g>
		</svg>
	