<svg xmlns="http://www.w3.org/2000/svg" viewBox="0 0 512 512"><title>Pilot</title><g id="Pilot"><g id="Pilot-2" data-name="Pilot"><path d="M297.5178,313.7068l-2.3312-12.3985c28.4819-14.4437,48.5886-49.2271,48.5886-89.925,0-1.5457-.11-3.0657-.1861-4.5914a185.0994,185.0994,0,0,0,23.0916-12.5191,9.9751,9.9751,0,0,0,0-16.605c-.3819-.2556-2.4168-1.5923-5.8615-3.591,8.7248-9.2436,13.6325-19.9766,13.6325-31.7471l.1026-9.9712h-9.975c-5.5594-.5254-24.4017-15.1953-36.87-24.9043C302.2327,87.62,275.8816,67.1048,256.0019,67.1048c-20.5153,0-47.0725,20.7785-72.7548,40.871-12.8478,10.0481-30.4437,23.8174-35.7266,24.3827h-9.975v9.975c0,11.7705,4.9077,22.5064,13.6325,31.75-3.4447,1.9988-5.48,3.3355-5.8625,3.591a9.98,9.98,0,0,0,0,16.6051,185.5464,185.5464,0,0,0,23.0926,12.5153c-.0731,1.5294-.1862,3.0495-.1862,4.5951,0,40.698,20.1058,75.4813,48.5877,89.9251l-2.33,12.3984C194.2168,340.912,112.854,340.8853,112.854,444.8952h120.68l17.2368-54.63-22.5929-22.5938,27.8236-27.8237,27.82,27.8237-22.59,22.5938,17.2368,54.63H399.146C399.1431,340.8787,317.78,340.9053,297.5178,313.7068Zm-41.5159-106.34c-35.4844,0-67.0253-12.6083-84.6944-21.393,17.6719-8.7875,49.2128-21.393,84.6944-21.393,35.4844,0,67.0215,12.6084,84.6944,21.393C323.0206,194.7621,291.48,207.3666,256.0019,207.3666Zm-97.3132-57.9709c9.19-4.2664,20.7318-13.1,36.8514-25.7088,19.76-15.4585,46.8226-36.632,60.4618-36.632,13.034,0,39.8629,20.8914,59.4577,36.1465,16.5879,12.9143,28.4315,21.9346,37.8385,26.2371-1.8459,5.3637-5.776,10.4073-11.345,14.973-18.3112-8.33-45.3368-17.7821-76.209-19.4912l35.2878-25.8324h-30.73l-14.6461,8.3629-15.1126-8.3629H210.9709L246.26,144.92c-30.873,1.7091-57.8948,11.1587-76.2061,19.4912C164.4675,159.8325,160.5279,154.7756,158.6887,149.3957Z"/></g></g></svg>